<svg xmlns="http://www.w3.org/2000/svg" viewBox="0 0 1280 640">
  <rect x="0.0" y="0.0" width="1280.0" height="640.0" fill="#111419"/>
  <g fill="#B54B25">
    <path d="M576.391235,241.310028 C541.122681,257.151642 516.370239,281.740936 507.655518,320.139465 C503.268402,339.469879 504.558716,358.523560 511.466492,377.162750 C512.818604,380.811096 513.938721,384.545380 515.243469,388.473785 C497.524933,384.559570 459.200439,323.546661 449.974945,284.565125 C434.654938,219.831772 448.402283,161.413742 489.019836,108.548454 C486.452026,147.097656 501.486206,175.135406 536.912720,191.716690 C537.471191,190.536362 538.044250,189.387283 538.561462,188.213608 C539.026001,187.159454 539.429138,186.078232 539.932800,184.826157 C534.868774,181.728180 529.795166,178.932297 525.054688,175.654541 C517.265503,170.268875 517.029419,168.030380 523.227783,161.200714 C525.791077,158.376373 528.676331,155.834045 531.509521,153.267685 C534.542603,150.520294 537.814514,150.744949 540.265442,153.774078 C544.085266,158.494919 547.464539,163.572159 551.340942,168.927322 C565.370544,154.647659 582.579712,144.972763 602.302246,139.641144 C602.713623,135.424973 601.737976,133.031113 597.277283,131.892807 C587.319214,129.351639 581.326355,120.331017 581.767639,109.618782 C582.179138,99.628838 589.417297,91.198952 599.292847,89.207939 C608.935059,87.263969 619.079102,92.333099 623.433472,101.271301 C628.024719,110.695885 625.810181,121.313705 617.856750,127.993065 C616.717285,128.950073 615.224426,129.687164 614.497742,130.890060 C613.263794,132.932724 615.761902,136.137070 618.417236,136.146561 C630.876709,136.191055 643.336975,136.286957 655.794189,136.133438 C656.963013,136.119019 658.893921,134.624191 659.075684,133.575043 C659.312195,132.209457 658.593628,130.065338 657.522705,129.185272 C650.185913,123.156128 646.691467,115.692223 648.807861,106.264290 C651.337769,94.993820 660.773254,88.248520 672.386902,88.986740 C682.615601,89.636932 690.974304,97.973900 692.283142,108.831329 C693.552917,119.364922 686.935547,128.891281 676.108276,132.116684 C671.931641,133.360870 671.931641,133.360886 671.663574,139.521164 C691.264465,144.986710 708.662964,154.674789 722.889709,169.392624 C726.018982,164.510910 728.528992,159.621597 731.955261,155.492569 C736.393433,150.144089 739.312134,150.154922 744.524292,154.897934 C748.086060,158.139130 751.484802,161.644379 754.411804,165.450424 C755.393921,166.727432 755.517151,169.847061 754.624207,171.182495 C750.388123,177.517853 746.278992,184.123306 741.011353,189.552322 C715.934814,215.396637 684.491760,227.084702 649.135193,228.898392 C632.164612,229.768921 615.105347,229.425613 598.559814,233.988663 C591.189453,236.021332 584.011292,238.750900 576.391235,241.310028 M509.093719,188.570190 C505.830963,186.590591 503.393616,187.480911 500.914001,190.279648 C491.853882,200.505783 484.857117,211.879517 480.874725,225.000229 C480.344727,226.746368 480.247284,228.623825 479.949493,230.440460 C482.113434,229.701126 483.232635,228.568771 484.274414,227.369186 C490.818390,219.833878 497.418274,212.344986 503.836060,204.703354 C505.948761,202.187820 507.791565,201.599930 511.080933,202.817978 C518.397644,205.527359 525.948059,207.612213 533.431519,209.857162 C534.419312,210.153488 535.572693,209.897842 536.908203,209.897842 C536.664429,207.931580 536.138916,206.259262 536.319641,204.667114 C536.850464,199.991455 534.623047,197.927170 530.354248,196.552048 C523.399475,194.311630 516.646301,191.445160 509.093719,188.570190 M506.363708,223.867661 C501.580688,237.851273 497.295959,251.898224 500.820862,267.030701 C502.031677,265.769623 502.817657,264.396362 503.403503,262.942474 C506.515961,255.218674 510.047729,247.620667 512.513367,239.692703 C514.591858,233.009705 517.868530,229.776260 525.211731,230.562637 C529.789734,231.052902 534.514526,230.239624 539.167908,229.928680 C541.378357,229.780975 543.575806,229.440018 546.416443,229.113312 C544.852356,226.533203 543.478821,224.810135 542.688538,222.851730 C541.001587,218.671570 538.182251,217.390427 533.724976,217.705063 C527.423401,218.149902 521.056152,218.124954 514.743591,217.794144 C510.426086,217.567856 507.670563,218.804718 506.363708,223.867661 M683.104614,119.507729 C686.997803,113.469284 686.445618,107.455124 682.578735,101.751701 C679.221252,96.799736 674.288513,94.643242 668.329102,95.414597 C661.370361,96.315300 655.901672,101.716728 654.936462,108.330170 C653.929260,115.231819 657.412964,122.019196 663.452393,124.921982 C669.982544,128.060623 677.093872,126.282349 683.104614,119.507729 M594.703674,98.065704 C593.627686,99.094223 592.371765,99.991173 591.506653,101.173943 C587.671387,106.417740 586.726868,112.039352 589.838501,117.978149 C592.990601,123.994125 599.059937,127.138367 606.019958,126.258293 C612.480103,125.441429 616.449890,121.494461 618.453918,115.522743 C620.376953,109.792618 618.280945,102.801437 613.410767,98.881767 C607.735291,94.313911 601.625122,94.121208 594.703674,98.065704 z"/>
    <path id="co" d="M541.126099,89.140152 C553.040833,87.190483 561.360046,79.634613 569.002014,71.112579 C571.192627,68.669678 573.012329,65.894112 575.797607,62.222351 C576.231812,64.795006 576.727478,66.290306 576.698364,67.775314 C576.246643,90.841591 567.095398,109.520187 547.663269,122.262253 C531.632385,132.773987 509.887939,126.859474 502.896820,110.657417 C499.211487,102.116524 499.920441,93.371773 502.791992,84.764862 C512.046143,57.026852 543.363403,38.359249 572.159485,43.346962 C573.131531,43.515324 574.076965,43.837269 576.395569,44.443283 C558.305847,54.756245 545.905029,68.585785 540.658264,88.527893 C540.768005,89.041031 540.947083,89.090591 541.126099,89.140152 z"/>
    <use href="#co" transform="matrix(-1 0 0 1 1276 0)"/>
    <path id="ci" d="M512.481812,41.659302 C506.279633,48.791008 499.495514,55.165680 494.610657,62.761719 C489.743896,70.329605 486.782562,79.122833 483.021515,87.301079 C474.897644,73.145744 494.256226,43.026726 515.484375,38.242329 C514.252014,39.673138 513.492188,40.555344 512.481812,41.659302 z"/>
    <use href="#ci" transform="matrix(-1 0 0 1 1276 0)"/>
    <path id="cs" d="M485.342133,36.366531 C487.285034,35.656651 488.926544,35.132847 490.568085,34.609043 C490.822021,34.939556 491.075928,35.270065 491.329834,35.600578 C487.972534,40.224537 484.357605,44.687035 481.330170,49.517742 C478.280609,54.383774 475.814819,59.615677 473.021210,64.821548 C468.805786,57.000084 474.566467,43.725395 485.342133,36.366531 z"/>
    <use href="#cs" transform="matrix(-1 0 0 1 1276 0)"/>
    <path id="ca" d="M516.183899,132.194611 C522.420593,133.263596 528.281250,134.201035 535.579590,135.368439 C533.735168,138.607574 532.458374,142.185272 530.080994,144.738068 C525.563721,149.588715 520.440613,153.879349 515.522034,158.350739 C512.641418,160.969467 511.207031,158.018814 510.002319,156.439453 C504.206635,148.841522 501.392303,139.992676 500.017761,130.658966 C499.544495,127.445229 499.484009,124.170700 499.247406,121.086006 C505.013031,124.907730 510.410461,128.485413 516.183899,132.194611 z"/>
    <use href="#ca" transform="matrix(-1 0 0 1 1276 0)"/>
  </g>
  <g fill="#3E5160">
    <path d="M734.501465,297.549744 C738.492004,300.492676 742.463440,302.946747 746.135376,305.787903 C748.037231,307.259399 749.408569,309.416626 751.441956,311.748444 C746.855164,315.097046 742.912354,318.393646 738.575256,321.045197 C731.828613,325.169922 728.155762,323.812164 724.733215,316.533722 C724.318237,315.651245 723.934387,314.754089 723.770813,314.388428 C665.694336,360.448334 608.095764,360.065308 549.799194,314.189789 C550.265381,313.919037 549.849121,314.011139 549.737305,314.247375 C545.003967,324.246643 544.079285,324.535431 534.685547,318.915405 C532.399048,317.547485 530.253235,315.728058 527.780212,314.932556 C522.313843,313.174194 522.691956,310.019897 524.591919,305.735352 C535.818665,280.418579 555.496216,264.054230 580.257629,253.156662 C597.869995,245.405411 616.382446,241.908875 635.636536,241.805786 C669.682739,241.623489 701.834412,234.285034 730.095581,214.428665 C756.601074,195.805862 775.786560,171.677307 782.361023,139.190277 C784.288513,129.666000 784.646912,119.824181 785.710510,110.253067 C807.830017,124.114128 833.086670,202.060471 829.853088,245.569122 C826.816162,286.431824 814.357361,323.790680 789.980469,356.888763 C783.153198,366.158478 775.971313,375.224182 766.592102,382.477173 C777.647705,345.106598 774.178467,312.793182 736.884521,290.006683 C735.821716,293.041870 735.089966,295.131592 734.501465,297.549744 M740.244385,273.128265 C739.210510,274.181854 737.314880,275.226105 737.303406,276.290710 C737.268250,279.548279 736.078369,283.420593 740.773010,285.114044 C748.918091,288.052032 757.022217,291.125061 765.019287,294.441132 C768.315857,295.808105 770.770142,295.528473 772.792236,292.610992 C777.806580,285.376465 783.272217,278.395813 787.624207,270.780334 C790.893127,265.060120 792.714539,258.512665 795.180359,252.333511 C794.664185,252.075134 794.147949,251.816757 793.631775,251.558365 C792.686707,252.395660 791.636169,253.140945 790.813293,254.084763 C783.702087,262.241058 776.731384,270.523560 769.453308,278.527100 C768.212646,279.891479 765.426025,281.122833 763.835938,280.680756 C756.150391,278.543884 748.629761,275.814148 740.244385,273.128265 M771.084839,247.542938 C773.789856,237.200363 776.448669,226.855438 772.762390,214.654861 C767.989380,226.433502 763.410706,236.758331 759.685364,247.382385 C758.087830,251.938309 755.808594,253.045731 751.393311,252.985168 C743.873535,252.882050 736.344727,253.432678 727.918945,253.741684 C729.562683,256.620331 730.848083,258.219116 731.443542,260.043121 C732.910339,264.536072 735.999451,265.423492 740.312012,265.226257 C747.118164,264.915009 753.951416,265.001160 760.766785,265.172668 C763.919128,265.251984 765.774658,264.120087 766.705261,261.131226 C768.039612,256.845734 769.501282,252.599915 771.084839,247.542938 M681.834656,310.888672 C683.122681,309.321503 684.410706,307.754333 685.698792,306.187164 C684.044250,305.126495 682.421997,303.213593 680.729736,303.149567 C672.450623,302.836243 664.152832,303.026001 655.861633,303.015259 C652.984131,303.011536 650.208740,303.453064 650.295471,307.069275 C650.382507,310.700836 653.296204,310.912109 656.086548,310.915283 C664.377686,310.924683 672.668884,310.931183 681.834656,310.888672 M589.242676,309.488556 C589.949036,309.902496 590.651733,310.669525 591.362366,310.677002 C600.983276,310.778076 610.609863,310.919159 620.221436,310.618591 C621.479797,310.579254 623.665161,308.091827 623.603271,306.827271 C623.539673,305.527008 621.284668,303.309326 619.927185,303.262177 C610.643860,302.939728 601.339355,302.905701 592.052917,303.171631 C588.778076,303.265381 587.498169,305.572510 589.242676,309.488556 z"/>
    <path id="ro" d="M572.515015,353.440979 C587.830688,364.974670 596.642151,379.591949 596.697266,399.247833 C586.940918,389.371521 576.361755,381.276398 561.461731,379.225525 C567.425964,398.814392 582.505554,408.750427 599.504028,417.902374 C591.400208,421.597198 583.909241,421.627380 576.586121,420.815887 C553.758301,418.286346 536.529602,407.004089 526.302917,386.249634 C518.678284,370.775818 524.309937,353.449097 538.729614,347.822968 C550.677063,343.161438 561.935547,345.972534 572.515015,353.440979 z"/>
    <use href="#ro" transform="matrix(-1 0 0 1 1276 0)"/>
    <path id="ri" d="M545.629517,333.399811 C546.887207,335.276184 547.903992,336.886627 549.446289,339.329468 C535.995789,340.223206 525.887329,345.396210 519.265198,356.779877 C516.196899,345.070343 515.757385,333.911987 520.941956,323.067902 C522.250610,320.330688 523.829590,319.666687 526.791138,321.687775 C532.796997,325.786377 539.168091,329.349823 545.629517,333.399811 z"/>
    <use href="#ri" transform="matrix(-1 0 0 1 1276 0)"/>
  </g>
  <g fill="#15181D">
    <path d="M509.450897,188.706543 C516.646301,191.445160 523.399475,194.311630 530.354248,196.552048 C534.623047,197.927170 536.850464,199.991455 536.319641,204.667114 C536.138916,206.259262 536.664429,207.931580 536.908203,209.897842 C535.572693,209.897842 534.419312,210.153488 533.431519,209.857162 C525.948059,207.612213 518.397644,205.527359 511.080933,202.817978 C507.791565,201.599930 505.948761,202.187820 503.836060,204.703354 C497.418274,212.344986 490.818390,219.833878 484.274414,227.369186 C483.232635,228.568771 482.113434,229.701126 479.949493,230.440460 C480.247284,228.623825 480.344727,226.746368 480.874725,225.000229 C484.857117,211.879517 491.853882,200.505783 500.914001,190.279648 C503.393616,187.480911 505.830963,186.590591 509.450897,188.706543 z"/>
    <path d="M506.515533,223.507294 C507.670563,218.804718 510.426086,217.567856 514.743591,217.794144 C521.056152,218.124954 527.423401,218.149902 533.724976,217.705063 C538.182251,217.390427 541.001587,218.671570 542.688538,222.851730 C543.478821,224.810135 544.852356,226.533203 546.416443,229.113312 C543.575806,229.440018 541.378357,229.780975 539.167908,229.928680 C534.514526,230.239624 529.789734,231.052902 525.211731,230.562637 C517.868530,229.776260 514.591858,233.009705 512.513367,239.692703 C510.047729,247.620667 506.515961,255.218674 503.403503,262.942474 C502.817657,264.396362 502.031677,265.769623 500.820862,267.030701 C497.295959,251.898224 501.580688,237.851273 506.515533,223.507294 z"/>
    <path d="M740.647461,273.211426 C748.629761,275.814148 756.150391,278.543884 763.835938,280.680756 C765.426025,281.122833 768.212646,279.891479 769.453308,278.527100 C776.731384,270.523560 783.702087,262.241058 790.813293,254.084763 C791.636169,253.140945 792.686707,252.395660 793.631775,251.558365 C794.147949,251.816757 794.664185,252.075134 795.180359,252.333511 C792.714539,258.512665 790.893127,265.060120 787.624207,270.780334 C783.272217,278.395813 777.806580,285.376465 772.792236,292.610992 C770.770142,295.528473 768.315857,295.808105 765.019287,294.441132 C757.022217,291.125061 748.918091,288.052032 740.773010,285.114044 C736.078369,283.420593 737.268250,279.548279 737.303406,276.290710 C737.314880,275.226105 739.210510,274.181854 740.647461,273.211426 z"/>
    <path d="M770.996704,247.940033 C769.501282,252.599915 768.039612,256.845734 766.705261,261.131226 C765.774658,264.120087 763.919128,265.251984 760.766785,265.172668 C753.951416,265.001160 747.118164,264.915009 740.312012,265.226257 C735.999451,265.423492 732.910339,264.536072 731.443542,260.043121 C730.848083,258.219116 729.562683,256.620331 727.918945,253.741684 C736.344727,253.432678 743.873535,252.882050 751.393311,252.985168 C755.808594,253.045731 758.087830,251.938309 759.685364,247.382385 C763.410706,236.758331 767.989380,226.433502 772.762390,214.654861 C776.448669,226.855438 773.789856,237.200363 770.996704,247.940033 z"/>
    <rect x="588" y="303" width="36" height="8" rx="4"/>
    <rect x="652" y="303" width="36" height="8" rx="4"/>
  </g>
  <g fill="#BFC4C5">
    <circle cx="604" cy="111" r="17"/>
    <circle cx="672" cy="111" r="17"/>
  </g>
  <g fill="#15181D">
    <path id="pu" d="M603.947876,120.143570 C597.244080,120.434769 594.113586,114.517960 594.405640,110.578140 C594.807373,105.158615 598.654663,102.132660 604.982361,102.236397 C605.298462,104.332848 604.924622,107.090004 606.113464,108.261856 C607.298584,109.430061 610.050720,109.008621 612.392944,109.321121 C613.673462,114.997704 611.162903,118.650894 603.947876,120.143570 z"/>
    <use href="#pu" transform="matrix(-1 0 0 1 1276 0)"/>
  </g>
  <text x="638" y="530" text-anchor="middle" font-family="Poppins, 'Segoe UI', system-ui, -apple-system, sans-serif" font-weight="700" font-size="90" fill="#BFC4C5">bepository</text>
  <text x="638" y="585" text-anchor="middle" font-family="Poppins, 'Segoe UI', system-ui, -apple-system, sans-serif" font-weight="400" font-size="26" fill="#BFC4C5">Deduplicated Incremental P2P Backups</text>
</svg>
